<svg xmlns="http://www.w3.org/2000/svg" viewBox="0 0 56.52 56.52"><defs><style>.cls-1{fill:#fff;}</style></defs><g id="Capa_2" data-name="Capa 2"><g id="Capa_1-2" data-name="Capa 1"><circle class="cls-1" cx="28.03" cy="28.49" r="5.05"/><path class="cls-1" d="M34.35,16.08H21.71a6.29,6.29,0,0,0-4.48,1.61,6.29,6.29,0,0,0-1.61,4.48V34.81a6.33,6.33,0,0,0,1.73,4.59A6.48,6.48,0,0,0,21.83,41H34.35a6.32,6.32,0,0,0,4.48-1.61,5.87,5.87,0,0,0,1.72-4.48V22.29a6.43,6.43,0,0,0-1.61-4.48A6.14,6.14,0,0,0,34.35,16.08ZM28,36.3a7.81,7.81,0,0,1,0-15.62A7.81,7.81,0,1,1,28,36.3Zm8.15-14.13A1.84,1.84,0,1,1,38,20.33,1.81,1.81,0,0,1,36.18,22.17Z"/><path class="cls-1" d="M28.26,0A28.26,28.26,0,1,0,56.52,28.26,28.24,28.24,0,0,0,28.26,0ZM43.31,34.92a9.11,9.11,0,0,1-2.53,6.55,8.94,8.94,0,0,1-6.43,2.41H21.83a9,9,0,0,1-6.44-2.41,8.67,8.67,0,0,1-2.52-6.55V22.29c0-5.29,3.56-9,9-9H34.46a8.8,8.8,0,0,1,6.43,2.52,8.76,8.76,0,0,1,2.42,6.44Z"/></g></g></svg>