<?xml version="1.0" encoding="utf-8"?>
<!-- Generator: Adobe Illustrator 22.1.0, SVG Export Plug-In . SVG Version: 6.00 Build 0)  -->
<svg version="1.1" id="Capa_1" xmlns="http://www.w3.org/2000/svg" xmlns:xlink="http://www.w3.org/1999/xlink" x="0px" y="0px"
	 viewBox="0 0 2954.5 964" style="enable-background:new 0 0 2954.5 964;" xml:space="preserve">
<style type="text/css">
	.st0{fill:#007BFF;}
</style>
<g>
	<path class="st0" d="M777.9,844.6c-1.1-1.2-1.7-2.6-1.3-4.2c0.5-1.9,0.8-3.8,1.3-5.6c0.3-1.5,0.9-1.8,2.7-1.4
		c2.3,0.6,4.7,1,7.2,1.1c5.9,0.2,10.5-2.1,13.9-6.7c2-2.7,3.4-5.7,4.6-8.7c4.4-10.3,4.1-10.5-0.1-20.2c-8.2-18.7-16-37.7-24-56.5
		c-0.2-0.5-0.4-1.1-0.6-1.6c-0.2-0.9,0.2-1.6,1.1-1.7c3-0.1,6.1-0.1,9.1-0.1c0.9,0,1.5,0.5,1.9,1.2c0.7,1.6,1.4,3.2,2.1,4.8
		c6.2,15.4,12.3,30.8,18.5,46.2c0.5,1.3,1,2.5,1.6,3.7c0.2,0.3,0.6,0.5,0.9,0.6c0.4,0.1,0.7,0,0.9-0.5c0.4-1.3,0.9-2.5,1.3-3.8
		c5.5-15.8,10.9-31.7,16.4-47.6c0.3-0.9,0.6-1.8,0.9-2.7c0.5-1.2,1.3-2.1,2.6-2.1c3,0,6,0,9.1,0.1c0.9,0,1.3,0.8,1,1.7
		c-0.5,1.5-1,2.9-1.6,4.3c-9.5,24.4-19,48.9-28.6,73.3c-2.2,5.6-4.8,11-8.4,15.9c-2.9,4.1-6.6,7.2-11.5,9c-0.7,0.2-1.6,0.3-1.7,1.3
		H777.9z"/>
	<path class="st0" d="M336,722.4c-1.5-0.2-2.2-1.2-3.1-2c-11.7-10.1-34.9-11.8-47.4,6.5c-3.4,5.1-5.8,10.6-6.7,16.5
		c-1.8,12-1.7,24.1,2.2,35.8c1.5,4.6,3.6,8.9,6.5,12.9c5.6,7.8,13.3,12,23.4,12.3c6.7,0.1,13.3-0.4,19.8-2c3.4-0.8,3.7-1.2,3.8-4.2
		c0-8.2,0-16.5,0-24.7c0-2.6-0.4-2.9-3.3-2.9c-3.4-0.1-6.9,0-10.3-0.1c-1.4,0-2.2-0.8-2.3-2.2c0-1.5,0-3.1,0-4.6
		c0-2.1,0.6-2.6,3-2.6c7.4-0.1,14.9-0.1,22.4-0.1c2.8,0,3.3,0.5,3.3,2.9c0,13,0,26.1,0,39.1c0.1,1.9-0.5,3.4-2.4,4.2
		c-14.3,6.1-29.1,9.2-44.8,6.5c-10.9-1.9-19.1-7.7-25.2-16.4c-4.8-7-7.7-14.8-9.2-23c-2.5-13-2.3-25.9,2-38.6
		c3.2-9.7,8.6-18.1,17.1-24.6c3.8-2.9,8.1-5,12.8-6.3c9.5-2.6,19.1-2.7,28.7-0.5c5.8,1.4,10.8,4.3,15.3,7.9c2.4,1.9,2.4,2.8,0.2,5.2
		C339.9,719.3,338.3,721.3,336,722.4"/>
	<path class="st0" d="M1394.3,773.8v-11.5c0-3.4,0-6.9-0.1-10.4c0-1.3-0.8-2.2-2.1-2.5c-6.9-1.5-14-2.4-21.1-1.5
		c-5.4,0.7-10,3.2-13.1,7.5c-9,12.3-9,29.4,0.1,41.7c3.8,5.2,9.2,7.8,16.1,7.3c6.2-0.5,11.7-2.9,17.1-5.4c2.2-1.1,3.1-2.7,3.1-5
		C1394.2,787.2,1394.3,780.5,1394.3,773.8 M1393.6,740.6c1.1-1.6,0.7-3.4,0.7-5.1c0-8,0-16.1,0-24.1c0-1.3,0-2.7,0.1-4
		c0-1.1,0.8-1.7,2-1.7c0.6-0.1,1.2-0.1,1.8-0.1c8.7,0.1,7.8-1.1,7.8,7.2c0.1,23.9,0,47.9,0,71.8c0.1,3.8,0.1,7.6,0.3,11.5
		c0.2,5,0.6,9.9,2.6,14.6c0.7,1.5,0.2,2.3-1.3,2.3c-7.7,0-8.3,1.4-11.6-6.8c-0.2-0.5-0.6-1-0.9-1.4c-1.8-0.2-2.6,1.1-3.6,1.9
		c-4.8,3.2-9.9,5.7-15.8,7c-9.2,2.1-17.2-0.2-24.3-5.8c-4.3-3.4-7.5-7.6-9.2-12.6c-4-11.6-4.8-23.2-0.5-35
		c2.4-6.7,6.7-12.2,12.5-16.6c5.6-4.3,12.2-5.7,19.2-6c4.9-0.2,9.6,0.6,14.4,1.6C1389.7,739.8,1391.6,740.9,1393.6,740.6"/>
	<path class="st0" d="M1126.3,775c-0.1-1.9-0.2-3.8-0.3-5.7c-0.6-4.8-2-9.4-4.7-13.5c-2.6-3.9-6.1-6.9-10.9-7.7
		c-8.4-1.4-16.5-0.1-23.9,4.1c-1.2,0.7-1.7,1.5-1.7,2.8v2.9V798v2.9c0,1.3,0.8,2,2,2.5c5,2.2,10.2,2.2,15.4,2.2
		c9.4-0.1,16.1-4.2,20.1-12.2C1125.3,787.6,1126.4,781.4,1126.3,775 M1084.7,743.8c2.1,0.2,2.9-0.7,3.9-1.3c9-5,18.6-5.9,28.7-3.5
		c6.3,1.5,11.2,5.1,14.7,10.3c4.6,6.8,6.4,14.4,7,22.3c0.4,5.4-0.6,10.7-1.4,16c-0.3,1.8-1.1,3.7-1.7,5.5
		c-4.1,11.3-12.6,18-24.9,20.1c-3.6,0.6-7.2,1-10.8,1.1c-8.1,0.2-16.1-0.8-24.2-1.4c-2.8-0.2-3-0.6-3.1-3.2c0-1.2,0-2.3,0-3.4v-94.2
		c0-7.1-0.5-6.5,6.9-6.5c1,0,2,0,3,0.1c1.2,0.1,1.8,0.8,1.9,1.8c0.1,1.4,0.1,2.7,0.1,4v26.4V743.8z"/>
	<path class="st0" d="M1566.8,773.6V754c0-4.2-0.1-4.2-4.6-5.3c-5.2-1.3-10.4-1-15.6-0.9c-8.1,0.3-14.2,3.9-18.1,10.6
		c-0.8,1.3-1.5,2.7-2.2,4.1c-3.9,9.2-3.3,18.4,0,27.5c1.4,3.8,3.7,7.2,6.9,10c3.4,3,7.2,4.6,12,4.4c6.4-0.2,12.1-2.5,17.8-5.1
		c2.7-1.3,3.9-2.9,3.9-5.8C1566.7,786.9,1566.8,780.2,1566.8,773.6 M1578.4,752.2c0,12.7,0,25.3,0,38c0,6.9,0.4,13.8,3,20.4
		c0.7,1.7,0.1,2.5-2,2.5c-7.5,0-7.4,1.3-10.8-6.2c-0.9-2-1.4-2.1-3.5-0.8c-2.5,1.6-5,3.3-7.6,4.7c-5.8,3-12.1,4.4-18.7,3.5
		c-9.2-1.2-16.2-5.6-20.9-13.2c-4-6.4-6.2-13.3-6.2-20.8c0-5,0.1-10,1.2-14.9c1.2-4.9,3.1-9.5,6.2-13.7c8.1-11,19.3-15.2,33.1-13.7
		c4.2,0.5,8.3,1.7,12.4,2.6c1.1,0.2,2-0.1,2.1-1.4c0.1-1.5,0.1-3.1,0.1-4.6v-23c0-1.5,0.1-3,0.3-4.6c0-0.8,0.7-1.3,1.6-1.5
		c0.2-0.1,0.4-0.1,0.6-0.1c10.8,0.1,9.3-1.5,9.3,8.1C1578.4,726.5,1578.4,739.4,1578.4,752.2"/>
	<path class="st0" d="M920.3,737c0,6.3,0,12.6,0,19c0,2.5,0.6,2.9,3.3,3.1c5.9,0.2,11.7,0,17.5-1c10.1-1.7,19.1-7.7,20.7-18.9
		c1.4-9.7-1.9-21-17.8-23.6c-6.8-1.1-13.6-0.9-20.5-0.7c-2.5,0.1-3.1,0.6-3.1,3.1C920.2,724.3,920.3,730.7,920.3,737 M907.7,759.4
		v-46.6c0-1.1,0-2.3,0-3.4c0-3.8,0.2-3.9,4.1-3.9c9.5-0.1,19-0.1,28.5,0c4.7,0,9.2,0.8,13.7,2.2c12.2,3.8,19.1,11.6,20.6,23.8
		c0.3,2.3,0.4,4.6,0.4,6.9c0,3.5-0.8,6.9-2.5,10c-4.4,7.9-10.8,13.8-19.8,16.8c-6.3,2.1-12.9,2.8-19.6,3.1c-1.8,0.1-3.6,0.1-5.5,0.1
		c-7.7,0-6.9-0.7-7,6.9c0,10.5,0,21.1-0.1,31.6c0,1.5-0.1,3.1-0.3,4.6c0,0.8-0.7,1.3-1.5,1.5c-0.6,0.1-1.3,0.1-1.8,0.1
		c-10.7-0.1-9.1,1.4-9.2-8.3C907.6,789.7,907.7,774.5,907.7,759.4L907.7,759.4z"/>
	<path class="st0" d="M1721.2,705.6c0.6,2.4-0.5,4.1-1.1,5.9c-9.1,26.5-18.2,53.1-27.4,79.7c-2.2,6.4-4.4,12.7-6.5,19.1
		c-0.6,1.9-1.8,2.9-3.9,2.8c-11.4-0.2-8.8,1.8-12-7.8c-10.3-30.8-20.6-61.7-30.8-92.5c-0.5-1.5-1-2.9-1.4-4.4
		c-0.7-2.2-0.2-2.8,2.1-2.9c2.8-0.1,5.6-0.1,8.5,0c1.3,0,2.2,0.8,2.7,1.9c0.4,0.9,0.6,1.8,0.8,2.7c8.6,26.7,17.2,53.5,25.8,80.2
		c0.4,1.1,0.8,2.1,1.2,3.2c1.6-0.7,1.7-2.2,2.1-3.4c4-12.3,7.9-24.5,11.9-36.8c4.7-14.4,9.4-28.9,14.1-43.3c0.3-0.9,0.5-1.8,0.9-2.8
		c0.4-0.9,1.1-1.6,2.3-1.7C1714.1,705.5,1717.7,705.4,1721.2,705.6"/>
	<path class="st0" d="M462.7,784.7L462.7,784.7l0-6.3c-0.1-4.2-0.2-4.5-5-4.2c-6.5,0.4-12.7,1.8-18.7,4.2c-1.5,0.6-2.9,1.3-4.3,2.1
		c-5.1,3.2-7.8,7.5-7.4,13.5c0.3,6.6,3.4,9.7,10.3,10.3c8.6,0.7,15.7-2.5,22.6-6.7c1.8-1.1,2.5-2.9,2.5-4.9
		C462.7,790.1,462.7,787.4,462.7,784.7 M463.2,803c-2.2,0.3-3.2,2.2-4.7,3.4c-9,6.9-19.2,9.7-30.6,7.1c-8.3-1.8-13.1-7.5-13.7-15.6
		c-0.8-10.1,3.2-18,12.7-23c6.7-3.4,13.8-5.4,21.3-6.3c4-0.5,8-0.7,12-1.1c1.4-0.1,2.3-0.5,2.4-2c0.1-3.7,0.3-7.3-0.9-10.8
		c-1.1-3.4-3.3-5.6-6.7-6.9c-4.1-1.6-8.3-1.4-12.5-0.7c-4.4,0.8-8.5,2.3-12.3,4.7c-1.3,0.8-2.7,1.7-4,2.6c-1.2,0.7-2.3,0.8-3.2-0.3
		c-1.3-1.5-2.5-3-3.6-4.6c-0.9-1.2-0.4-2.3,0.6-3c1.4-1,2.9-2.1,4.5-2.9c8.4-4.1,17.3-6.4,26.8-5.9c5.8,0.3,11.1,2.1,15.7,5.4
		c3.6,2.5,5.6,5.9,6.6,10c0.8,3,0.9,6,0.9,9.1c0,10.6,0,21.1,0.1,31.6c0,2.1,0,4.3,0.4,6.4c0.7,3.8,2.5,5.1,6.6,5.2
		c0.6,0,1.3-0.1,1.8-0.1c2.5,0.1,4.4,2.3,3.9,4.6c-0.2,0.5-0.6,1-1.1,1.3c-2.2,1.5-4.7,2.4-7.2,2.9c-7.2,1.4-12.5-1.9-14.3-7.6
		C464.4,805.4,464.4,804,463.2,803"/>
	<path class="st0" d="M706.2,784.7L706.2,784.7c-0.1-2.1,0-4.2-0.1-6.3c0-4.2-0.2-4.3-4.3-4.3c-6.9,0.2-13.5,1.8-19.9,4.3
		c-2.6,1-4.9,2.5-7,4.4c-1.6,1.5-2.9,3.2-3.7,5.2c-3.8,8.9,1.6,16.5,11.6,16.4c7.7-0.1,14.5-2.9,20.7-6.9c1.8-1.1,2.8-2.7,2.7-4.8
		C706.2,790.1,706.2,787.4,706.2,784.7 M661.9,748.3c1-2,3-3,4.9-4.1c10.5-6,21.8-7.8,33.8-5.5c9.2,1.8,16.6,9.4,16.8,17.9
		c0.1,2.9,0.3,5.8,0.4,8.6c0.1,9-0.1,18,0.1,27c0,3,0.3,6.1,0.8,9.2c0.5,2.8,2,3.8,5.1,3.9c1,0,2-0.1,3-0.1c2.1,0.1,2.7,0.5,3.5,2.5
		c0.7,2.1,0.3,3.3-1.7,4.2c-2.5,1.2-5.3,1.9-8.1,2.3c-5.6,0.7-9.8-1.7-12-6.8c-0.5-1-0.7-2.2-1.1-3.3c-0.4-1.1-1.3-1.5-2.2-0.8
		c-1.2,1-2.3,2.1-3.6,3.1c-7.2,5.5-15.4,8.2-24.6,8c-3.5-0.1-6.8-1-9.9-2.5c-4.7-2.2-7.7-5.8-8.8-10.5c-2.2-9.8,0.1-18.9,9.7-25.3
		c7-4.6,15-6.6,23.2-7.6c4-0.6,8-0.7,12-1c2.6-0.2,3-0.7,3.2-3.3c0.2-2.9-0.4-5.7-1.2-8.5c-1.6-5.7-5.5-8.6-11.7-9
		c-5.6-0.4-10.9,0.3-15.8,2.9c-2.7,1.4-5.2,2.9-7.8,4.4c-1.9,1.1-2.6,1.1-4.1-0.6C664.2,751.9,662.6,750.4,661.9,748.3"/>
	<path class="st0" d="M1474.8,785.2c0-2.9,0.1-5.8,0-8.6c0-1.8-0.7-2.3-2.6-2.3c-8,0-15.6,1.6-22.8,4.9c-2.9,1.3-5.5,3.2-7.4,5.7
		c-3.3,4.4-3.8,9.4-1.5,14.2c2.2,4.6,6.9,5.5,11.8,5.4c8-0.2,14.7-3.5,21.1-7.6c1.1-0.7,1.4-1.8,1.4-3V785.2z M1486.5,779.3
		c0,2.9-0.1,8,0,13.2c0.1,2.9,0.2,5.7,0.8,8.6c0.6,3,2.2,4.1,5.5,4.3c0.8,0,1.6-0.1,2.5,0c2.5,0,3.9,1.3,4.1,3.8
		c0.1,0.8-0.1,1.5-0.9,2c-4.8,3-9.9,4.3-15.5,2.2c-2.5-1-4.5-2.6-5.5-5c-0.6-1.2-0.9-2.5-1.3-3.8c-0.4-1.4-1.2-1.7-2.6-0.6
		c-0.8,0.6-1.4,1.3-2.2,1.9c-5.3,4.1-11.2,6.8-17.9,8.1c-4.8,0.9-9.6,0.7-14.3-0.7c-8.3-2.4-13.3-9.1-12.8-16.2
		c0.2-3.1-0.2-6.1,0.9-9.1c1.9-5.6,5.6-9.7,10.8-12.7c7-4.1,14.8-6.1,22.9-6.8c3.8-0.3,7.6-0.6,11.4-1.1c1.9-0.2,2.3-0.7,2.5-2.6
		c0.2-3.1-0.2-6.1-0.8-9.1c-0.8-3.9-3.2-6.6-7.1-7.9c-6.6-2.3-13.1-1.5-19.4,1.2c-3.3,1.4-6.4,3.1-9.3,5.3c-1.1,0.9-2.2,0.7-3.1-0.4
		c-5.4-6.2-6.7-6.4,1.7-10.6c8.1-4.1,16.8-6.3,26.2-5.7c5.3,0.3,10.3,1.7,14.7,4.5c5,3.3,7.8,7.7,8.3,13.4
		C1486.7,762.8,1486.5,769.9,1486.5,779.3"/>
	<path class="st0" d="M1815.3,785.1L1815.3,785.1c0-2.5,0.1-5,0-7.5c-0.1-3-0.5-3.5-3.4-3.4c-6.1,0.2-12,1.2-17.7,3.1
		c-3.5,1.1-6.6,2.8-9.4,5.2c-2.8,2.4-4.6,5.4-5,8.9c-1.1,9.2,4.7,12.9,11.3,13.1c8.3,0.2,15.3-2.8,22-6.9c1.4-0.9,2.2-2.2,2.2-3.9
		V785.1z M1826.9,775.5c0,5.4-0.2,10.7,0.1,16.1c0.1,3.2,0.5,6.5,1,9.7c0.5,2.7,2.2,3.9,5,4.2c1,0,2-0.1,3-0.1c2.6,0,4.4,2.1,4,4.5
		c-0.1,0.8-0.7,1.3-1.4,1.8c-3,1.7-6.3,2.6-9.7,2.8c-4.9,0.2-8.6-1.9-10.6-6.2c-0.7-1.4-1-2.9-1.5-4.3c-0.3-0.9-1.1-1.1-1.9-0.6
		c-1.2,0.8-2,1.8-3.2,2.7c-8.4,6.5-17.8,9.7-28.7,8c-10.6-1.7-16.5-8.7-16.2-19c0.2-8,3.6-14.4,10.7-18.9c7-4.5,14.9-6.6,23.3-7.5
		c3.8-0.4,7.6-0.7,11.4-1c2.5-0.2,3-0.7,3-2.7c-0.1-2.9-0.1-5.8-0.5-8.6c-0.8-4.8-3.8-8-8.9-9c-5.4-1.1-10.8-0.9-16,1.2
		c-3.8,1.5-7.2,3.4-10.6,5.6c-1.8,1.2-2.4,1.2-3.6-0.1c-5.6-6.2-6.4-5.9,1.6-10.2c9.9-5.3,20.7-7.5,32.1-5.2
		c3.2,0.7,6.1,1.7,8.8,3.5c5.4,3.7,8.6,8.5,8.7,15c0.1,6.1,0,12.3,0,18.4H1826.9z"/>
	<path class="st0" d="M1037.3,806.9c-1.9-0.2-2.7,0.7-3.8,1.3c-5.6,2.8-11.3,5-17.6,5.9c-4,0.6-8,0.5-12-0.5
		c-8-1.9-12.9-6.6-15.1-14.1c-1.4-4.9-1.4-9.9-1.4-14.8c-0.1-11.3-0.1-22.6-0.1-33.9c0-2.9,0.1-5.7,0.2-8.6c0.2-2.9,0.4-3.2,3.7-3.1
		c8.5,0.1,8.2-1.3,8.2,7.6c0.1,11.9-0.1,23.8-0.2,35.7c0,3.1,0.1,6.1,0.4,9.2c0.2,1.5,0.5,3.1,0.9,4.5c1.6,4.9,5.3,7.7,10.6,8.2
		c7.6,0.7,14.9-0.8,21.6-4.3c3.3-1.7,4.8-4,4.7-7.8c-0.2-13.2-0.1-26.5-0.2-39.7c0-2.5,0-5,0-7.5c0-6.2-0.4-6,6.2-6
		c6.1,0,6-0.2,6,5.7c-0.1,12.3-0.2,24.5-0.2,36.8c0,9.6-0.2,19.2,0.4,28.7c0.1,2.4-0.3,2.8-2.5,2.9c-2.3,0.1-4.5,0-6.7,0
		c-1.4,0-2.3-0.7-2.5-2C1037.7,809.8,1037.5,808.4,1037.3,806.9"/>
	<path class="st0" d="M505,780.5v-24.7v-3.4c-0.1-3.4-0.3-3.6-3.7-3.8c-1.6-0.1-3.2-0.1-4.8-0.2c-1.1-0.1-1.8-0.7-2-1.8
		c0-0.6,0-1.1,0-1.7c0-5.7-0.5-6,5.7-5.9c0.6,0.1,1.3,0.1,1.8,0c2.4-0.1,2.9-0.5,3-2.6c0-2.1,0-4.2,0.1-6.3c0.2-3.6,1-7.2,2.3-10.6
		c2.7-7,8-11.4,15.3-13.5c7.3-2.1,14.4-1.4,21.4,1c2.2,0.7,2.5,1.6,1.7,3.5c-0.6,1.4-1.3,2.8-2.1,4.1c-1.8,3.2-2.1,3.5-5.5,1.7
		c-3.4-1.8-7-2-10.6-1.8c-4.8,0.2-8.2,2.9-9.7,7.4c-0.9,2.6-0.9,5.3-1,8c-0.1,10.9-1.6,9.1,9.2,9.3c2.3,0.1,4.5,0,6.7,0.1
		c1.6,0.1,2.2,0.8,2.2,2.2c0,0.2,0,0.4,0,0.6c-1.4,7.3,0.3,6.7-7.9,6.8c-3.1,0-6.4-0.8-9.4,0.7c-1.1,2.8-0.5,5.6-0.6,8.5
		c-0.1,16.4-0.1,33-0.2,49.4c0,5.8-0.1,5.8-5.9,5.9c-6.2,0.1-6,0.2-6-5.6V780.5z"/>
	<path class="st0" d="M1225.3,775.6c0-5,0.7-10,2.4-14.7c6.2-17.1,20.8-25.1,39.8-22.8c6.8,0.9,12.9,3.1,17.9,7.6
		c2,1.7,1.9,2.3,0,4.2c-0.6,0.6-1.2,1-1.8,1.6c-3.5,3-3.6,3-6.9,0.1c-5.2-4.4-11.1-5.9-17.9-5.3c-6,0.5-10.7,3-14.4,7.5
		c-2.8,3.3-4.6,7.2-5.5,11.4c-1.7,7.6-1.4,15.2,1,22.7c1.4,4.3,3.6,8.1,6.8,11.4c7.6,7.9,21.3,8.8,30.1,2c0.8-0.6,1.6-1.2,2.2-2
		c3.9-4.6,4.1-3.6,8.6-0.4c0.5,0.4,0.9,0.8,1.3,1.2c0.6,0.6,0.7,1.4,0.2,2.1c-0.5,0.8-1.1,1.6-1.8,2.3c-4,3.9-8.7,6.9-14.3,8.3
		c-6.3,1.6-12.6,2.1-19.2,1c-9-1.5-16-5.9-21.1-13.1C1227.3,793.1,1225.4,784.6,1225.3,775.6"/>
	<path class="st0" d="M616.2,737.8c8.5-0.2,15.9,1.8,22.3,6.6c1,0.7,1.8,1.5,2.6,2.3c0.6,0.6,0.6,1.4,0,2.1
		c-0.5,0.6-1.1,1.1-1.7,1.6c-4.5,4-4.2,4.2-8.7,0.6c-5.2-4.2-11.4-5.6-18.1-4.7c-6.2,0.9-10.9,3.8-14.4,8.6c-3.3,4.6-5,9.7-5.5,15.1
		c-1,10,0.9,19.4,7.5,27.8c2.3,3,5.2,5.3,8.9,6.6c9,3.3,18.4,1.3,24.9-5.4c0.6-0.6,1.1-1.2,1.6-1.7c1.4-1.4,2.1-1.6,3.6-0.5
		c6.1,4.1,7.2,3.8,0.8,9.4c-8,6.9-17.7,9-28.1,8c-15.4-1.5-25-9.8-29.5-23.6c-3.3-10.1-3.4-20.4,0.4-30.5c3.2-8.6,9-15.3,17.8-19.4
		C605.7,738.3,610.9,737.5,616.2,737.8"/>
	<path class="st0" d="M1854.7,754.9v-43.1c0-1.5,0-3.1,0.1-4.6c0.1-0.8,0.6-1.5,1.5-1.5c1-0.1,2-0.1,3-0.1c8,0,7.2-0.7,7.2,6.7
		c0,27.6-0.1,55.2-0.1,82.8c0,1.7,0,3.5,0.2,5.2c0.3,2.3,1.8,3.9,4.3,4.2c1.8,0.2,3.6,0.2,5.4,0.2c1.1,0.1,1.9,0.6,2.2,1.6
		c1.1,4,2.5,4.9-3.4,6.5c-3.9,1.1-7.8,2-11.9,1c-3.9-0.9-6.3-3.1-7.6-6.7c-0.9-2.4-1.1-4.9-1.1-7.4c0-7.5,0-15,0-22.4L1854.7,754.9
		L1854.7,754.9z"/>
	<path class="st0" d="M1180,805.1c0.5,1,1,2,1.3,3.1c0.6,2.4,0.2,3.1-2,4c-3.1,1.1-6.2,1.8-9.5,2c-7.4,0.4-11.9-3.6-12.5-9.8
		c-0.4-3.4-0.7-6.9-0.7-10.3c0-27.8,0.1-55.6,0.3-83.5c0-5.2,0.1-5.2,5.3-5.2c1.2,0,2.4-0.1,3.6,0c2.3,0.1,2.7,0.5,2.8,2.8
		c0.1,1,0.1,1.9,0.1,2.9c-0.1,27.8,0,55.6-0.2,83.4c-0.1,8.8,2.1,10.5,10.3,10.2C1179.1,804.8,1179.5,805,1180,805.1"/>
	<path class="st0" d="M375.4,750.2c2-1.6,3.4-2.8,4.8-3.8c5.2-4.2,11-7.1,17.8-8.2c1.2-0.2,2.4-0.4,3.6-0.5c4.6-0.1,6.2,0,4.7,5
		c-0.4,1.3-0.6,2.6-0.8,4c-0.5,2.6-1.4,3.2-4.1,2.8c-7.8-0.9-14.8,1.2-20.9,5.8c-3.6,2.6-5.5,5.7-5.4,10.3
		c0.3,13.4,0.2,26.8,0.2,40.2c0,1.7,0,3.4-0.1,5.2c-0.1,1.1-0.7,1.9-1.9,1.9c-2.6,0.1-5.2,0.1-7.9,0.1c-1.4,0-2.1-1-2.1-2.3
		c0-1.7-0.1-3.5-0.1-5.2c0-20.9-0.1-41.8-0.1-62.7c0-0.7,0-1.5,0.1-2.3c0.2-0.8,0.6-1.5,1.6-1.5c2.6-0.1,5.3-0.1,7.9,0
		c0.9,0,1.3,0.7,1.6,1.5C375.2,743.4,375.1,746.3,375.4,750.2"/>
	<path class="st0" d="M561.1,776.3v31.6c0,1.1,0,2.3-0.1,3.5c0,0.8-0.6,1.4-1.5,1.5c-0.6,0.1-1.2,0.1-1.8,0.2
		c-9.8,0.1-8.6,1.1-8.6-7.6v-59.2c0-1.5,0-3,0-4.6c0.1-1.9,0.6-2.5,2.5-2.6c1.6-0.1,3.3-0.1,4.8-0.1c4.7,0.1,4.7,0.1,4.7,4.5
		C561.1,754.4,561.1,765.3,561.1,776.3"/>
	<path class="st0" d="M1747.9,775.8v31v4c-0.1,1.3-0.7,2.1-2.2,2.3c-0.6,0.1-1.2,0.1-1.8,0.1c-8.9,0-7.8,0.8-7.8-7.2
		c-0.1-20.1,0-40.2,0-60.2c0-1.5-0.1-3.1,0-4.6c0.1-1,0.7-1.8,1.8-1.9c2.6-0.1,5.2-0.1,7.9-0.1c1.5,0.1,2,1,2,2.3
		c0.1,1.3,0.1,2.7,0.1,4V775.8z"/>
	<path class="st0" d="M1206.2,776.1v31c0,1.4,0,2.7-0.1,4.1c-0.1,1-0.8,1.8-2,1.8c-2.4,0.1-4.8,0.1-7.2,0.1c-1.5,0-2.1-0.9-2.2-2.2
		c0-0.8,0-1.5,0-2.3V744c0-5,0-5,5.4-5c6.1-0.1,6.1-0.5,6.1,5.5C1206.2,755,1206.2,765.5,1206.2,776.1L1206.2,776.1z"/>
	<path class="st0" d="M1319,776.7V806c0,1.3,0,2.7,0,4c-0.1,2.7-0.5,3-3.1,3.2h-1.8c-6.9,0-6.5,0.5-6.5-6.1v-62c0-1.2-0.1-2.3,0-3.4
		c0.1-2.1,0.6-2.5,3-2.6c0.6,0,1.2,0,1.8,0c6.9,0.1,6.6-0.6,6.6,6.2L1319,776.7L1319,776.7z"/>
	<path class="st0" d="M439,726.2c7-7.9,14.1-15.8,21.8-23.6c1.1,0.9,1.8,1.5,2.5,2.2c7.3,7.4,7.1,5.6-0.7,11.5
		c-5.6,4.1-11.1,8.2-16.7,12.3c-2.9,2.2-3.2,2.1-5.9-0.6C439.7,727.6,439.5,727,439,726.2"/>
	<path class="st0" d="M1742.3,721.9c-4,0.1-7.5-3.1-7.5-6.9c0-3.5,3.2-6.3,7.2-6.4c4.1-0.1,6.9,2.5,7,6.4
		C1748.9,718.9,1746.1,721.9,1742.3,721.9"/>
	<path class="st0" d="M1320.1,715.2c0,3.8-2.7,6.5-6.6,6.7c-3.9,0.1-6.9-2.5-7.1-6.3c-0.1-4,2.4-6.8,6.3-6.9
		C1317.1,708.5,1320.1,711.1,1320.1,715.2"/>
	<path class="st0" d="M1207.2,715.2c0,3.9-2.7,6.7-6.6,6.7c-3.9,0.1-6.9-2.6-7.1-6.4c-0.2-4,2.8-6.9,7-7
		C1204.5,708.5,1207.1,711.1,1207.2,715.2"/>
	<path class="st0" d="M548.1,715.4c0-3.8,2.7-6.7,6.6-6.7c4.1-0.1,7.2,2.6,7.2,6.1c0.1,4-3.1,7.3-6.9,7.2
		C551.3,721.9,548.2,719,548.1,715.4"/>
</g>
<path class="st0" d="M975.2,290.4c-0.3,37.2-0.6,74.4-1,111.7c-0.1,15.7-0.2,31.4,0.3,47c0.2,7.1,0.9,14.1,2,21
	c2.7,16.7,9.8,31.4,20.3,44.5c16.4,20.5,37.9,32.8,63.7,37.1c21.1,3.6,41.4,0.1,60.2-10.2c27.4-15,45.4-37.6,52.2-68.3
	c4.9-21.9,2.4-43.2-7.3-63.5c-11.8-24.6-30.8-41.4-55.8-51.7c-8-3.3-16.6-4.9-25.3-5.2c-8.6-0.4-17.3-0.5-25.9,0.8
	c-2,0.3-4,0.4-6,0.5c-2,0.1-2.6-0.3-3.1-2.1c-4.6-19.8-10.4-39.3-14.1-59.3c-1.6-8.3-0.9-7.2,5.8-8.8c16.2-3.7,32.6-4.5,49.2-2.7
	c27,2.9,52.5,10.8,75.5,25.3c40.6,25.6,66.4,61.8,77.1,108.7c4,17.7,4.8,35.5,3.1,53.4c-7.1,73.8-58.4,129.7-122.8,148.4
	c-13.2,3.8-26.7,5.9-40.4,6.5c-33.4,1.5-64.9-5.7-93.7-22.6c-37.6-22-63.4-54-77.4-95.3c-4.2-12.7-6.5-25.7-7.5-39
	c-0.8-11.3-0.9-22.5-0.9-33.8V238c0-7.1-0.2-14.1-0.2-21.1c0-5.8,0.2-11.7,0.1-17.5c-0.1-5.6,2-9.7,6-13.8
	c20.2-20.5,41.1-40.3,62-60.1c0.4-0.4,0.9-0.9,1.3-1.2c0.5-0.3,0.9-0.9,1.6-0.3c0.2,0.2,0.5,0.6,0.5,0.9c0.2,1.8,0.2,3.6,0.2,5.4
	c0.7,24.6,0.7,49.1,0.7,73.6v86.3H975.2z"/>
<path class="st0" d="M219.1,781.7c-2.3-0.7-3.2-2.1-4.3-3.2c-20.3-20.4-40.6-40.8-61-61.2c-2.4-2.5-3.5-5-3.7-8.5
	c-0.8-14.7-0.9-29.4-0.9-44c0-63.6,0.2-127.2,0.4-190.8c0-10.3,0.3-20.5,0.9-30.8c1-17.1,3.4-34,9.5-50.2
	c5.7-15.4,14.1-29.4,23.7-42.6c25.1-34.5,58.7-56.2,100.2-65.8c16.4-3.8,33-4.9,49.8-3.5c38.4,3.3,72.1,17.7,100.9,43.1
	c29,25.6,47.6,57.4,55.3,95.3c2.5,12.5,3.8,25.1,3.3,37.8c-1.4,38-13.8,72.1-37.7,101.7c-20.4,25.3-46,43.6-76.6,54.8
	c-12.1,4.4-24.7,7-37.6,8.4c-13.2,1.4-26.5,1.5-39.8,1c-5.3-0.2-10.4-1-15.5-2.4c-1.2-0.3-2.3-0.6-3.4-1.1c-2.8-1-3.1-1.6-2.4-4.5
	c4.9-20.3,9.8-40.7,14.7-61c0.2-1,0.5-1.9,0.8-2.9c0.3-1.2,1.2-1.6,2.3-1.4c2.4,0.4,4.7,0.9,7.1,1.3c4.2,0.7,8.3,1.4,12.5,1.8
	c8.9,0.8,17.7,0.1,26.3-2.2c9.4-2.4,18.4-6,26.9-10.6c8.4-4.6,15.7-10.5,22.2-17.5c12.5-13.6,21.9-28.8,26.1-46.9
	c2.3-9.9,3.1-19.8,2.4-30c-1.6-23.9-10.8-44.4-27-61.8c-16-17.2-35.6-28.1-58.9-31.7c-22.8-3.5-44.1,1.1-64,12.2
	c-23.9,13.4-39.8,33.4-47.8,59.7c-1.7,5.4-2.5,11-3.1,16.6c-0.7,7.6-1.2,15.2-1.4,22.9c-0.5,26.4-0.1,52.8,0.5,79.1
	c0,2.2,0,4.4,0,6.6c0,44.5,0,88.9,0,133.4c0.1,22.6,0.2,45.1,0.3,67.6c0.1,8,0,16.1-0.1,24.2C220.1,777.2,220.2,779.4,219.1,781.7"
	/>
<path class="st0" d="M2165.8,529.2c0,27.4,0,54.7-0.1,82.1c0,3.4-0.2,6.8-0.4,10.2c-0.1,1.9-0.8,2.4-2.7,2.5c-1.2,0-2.4,0-3.6,0
	h-58.6c-1.4,0-2.8,0-4.2-0.1c-1.2-0.1-1.9-0.7-2-1.9c-0.2-2-0.5-4-0.5-6c-0.1-7.5-0.2-14.9-0.1-22.3c0.6-35.6,1-71.3,1-106.9
	c-0.1-13.7-0.7-27.4-1.3-41c-2.3-53.7-43.7-84.8-76.4-92.4c-24.9-5.7-48.5-2.2-70.6,10c-25.2,13.9-42.2,34.5-49.8,62.4
	c-9.9,36.8,2.4,79.2,35.7,105.2c14.4,11.3,30.7,18.3,48.9,20.6c7,0.9,14.1,0.6,21.1-0.1c4.2-0.4,8.4-0.8,12.6-1.2
	c3.4-0.2,3.6-0.1,4.6,3.3c1.6,5.8,3.2,11.6,4.6,17.5c3.5,14.2,6.9,28.5,9.6,42.9c0.2,0.8,0.3,1.6,0.4,2.4c0.2,1.8-0.3,2.6-2.2,2.9
	c-5.6,0.8-11.1,1.7-16.7,2.3c-10,1.1-20.1,1.7-30.1,1.5c-20.4-0.4-39.9-4.8-58.5-13.2c-30-13.5-55.1-33.1-73.9-60.4
	c-14.6-21.2-24.3-44.4-28.3-69.8c-12.4-77.4,26.9-141.8,78-173.5c20.8-12.9,43.4-20.9,67.7-24c39.4-5,76.6,2,111.2,21.5
	c19.9,11.3,36.5,26.3,49.9,44.9c9.3,13,17.5,26.5,23.3,41.4c4.8,12.7,7.7,25.8,9.2,39.2c1.6,13.8,2,27.7,2.1,41.6v58H2165.8z"/>
<path class="st0" d="M861.1,375.6c0,21.5,0,43.1,0,64.6c0,11.1-0.1,22.1-1.3,33.2c-1.6,15.3-4.9,30.2-11.1,44.3
	c-9.3,21.2-21.5,40.6-38.4,56.6c-24.9,23.6-54,40-87.9,46.5c-45.8,8.7-88.6-0.1-127.4-25.9c-35.8-23.8-59.4-56.7-70.7-98.2
	c-3.4-12.7-4.8-25.7-5.2-38.8c-0.2-8.1-0.2-16.1-0.2-24.2c-0.1-25.7-0.2-51.5-0.3-77.3c-0.1-11.1-0.5-22.1-0.4-33.2
	c0.1-12.7,0.5-25.4,0.8-38.1c0-0.8,0-1.6,0.1-2.4c0.1-1.1,0.8-1.8,2-1.9c1-0.1,2-0.1,3-0.1c20.6,0.1,41.1,0.1,61.6,0.1
	c5.4,0,5.5,0.1,5.6,5.3c0.1,6,0.2,12.1,0.1,18.1c-0.5,40.1-1.2,80.1-1.1,120.2c0.1,9.7,0.1,19.3,0.2,29c0.2,13.8,2.6,27.3,8.4,39.9
	c14.6,31.8,38.9,52,73.6,57.9c53.9,9.2,99.9-24.8,113.3-71.4c2.2-7.8,3.6-15.7,3.7-23.8c0.2-16.3,0.3-32.6,0.3-48.9
	c-0.1-20.1-0.4-40.3-0.6-60.4c-0.1-9.3-0.5-18.5-0.4-27.8c0.1-11.1,0.5-22.1,0.8-33.2c0-1,0-2,0.2-3c0.1-1.1,0.9-1.8,2-1.9
	c1.3-0.1,2.4-0.1,3.6-0.1c19.9,0,39.9,0,59.8,0.1h1.2c4.3,0.1,4.4,0.1,4.6,4.3c0.3,7.6,0.6,15.3,0.6,22.9c0.1,22.5,0,45.1,0,67.6
	H861.1z"/>
<path class="st0" d="M1787.4,328c-0.8,2.3-2.5,3.8-4.1,5.3c-14,14.5-28.7,28.2-43.4,41.9c-0.6,0.5-1.2,1.1-1.9,1.6
	c-0.9,0.6-1.9,0.4-2.8-0.2c-2-1.4-3.9-2.8-5.8-4.3c-11.8-9.1-25-15.4-39.6-18.4c-35.1-7.3-66,1.6-91.9,26
	c-22,20.8-31.7,47-30.5,77.2c1.9,47.5,38.6,86.3,83.5,93.9c29.9,5.1,56.7-2.6,80.6-20.8c6.5-5,5.4-4.6,10.6,0.4
	c13.2,12.7,26.3,25.5,39.4,38.3c2.1,2.1,4.1,4.4,6,6.4c-0.3,1.9-1.5,2.7-2.5,3.7c-7.3,7.3-15.5,13.4-24.3,18.7
	c-21.9,13-45.6,21.2-70.7,24.7c-75.8,10.6-149-31.9-179.6-100.9c-8.1-18.4-13-37.6-14.1-57.7c-2.8-47.2,10.8-89.1,42.1-124.7
	c26.8-30.5,60.6-49.4,100.8-56.3c50.9-8.7,96.5,4,137.3,35.3c1,0.7,1.9,1.5,2.8,2.3C1781.8,322.9,1784.6,325.5,1787.4,328"/>
<path class="st0" d="M2262.6,119.4v8.3c0,46.7,0.1,93.4,0.1,140c0,3,0,6,0.1,9c0.1,3,0.3,3.3,3.6,3.4c1.4,0,2.8,0,4.2,0
	c28.2,0.1,56.3,0.2,84.5,0.4c1.6,0,3.3,0,4.8,0.1c1.2,0.1,1.8,0.8,1.9,1.9c0.1,1,0.1,2,0.1,3c0.1,20.5,0.2,41,0.3,61.5
	c0,1,0,2-0.1,3c-0.1,1.2-0.9,1.7-2,1.8c-1.6,0.1-3.2,0.1-4.8,0.1c-28.6,0-57.2,0.1-85.7,0.1c-7.6,0-6.9-0.4-6.9,6.8
	c-0.1,28.2-0.1,56.3,0,84.5c0,10.3,0.4,20.5,2.7,30.6c4.6,20.8,15.1,38.4,30.9,52.7c11,10,23.4,17.7,38,21.4c7.6,1.9,15.4,3,23.2,4
	c1.2,0.2,2.4,0.2,3.6,0.4c1.9,0.3,2.4,0.9,2.5,2.7c0.1,1,0,2,0,3c0,19.9,0,39.8,0.1,59.8v2.4c-0.1,3-0.3,3.4-3.5,3.6
	c-3.4,0.2-6.8,0.2-10.3,0c-16-1-31.3-5.1-46.2-11c-16.9-6.8-32.7-15.4-46.9-26.9c-19-15.3-34.6-33.5-45.9-55.3
	c-7.9-15.1-13.8-30.8-16.8-47.6c-1.8-9.7-2.9-19.5-2.9-29.4c-0.1-12.3-0.1-24.5-0.1-36.8V202.1c0-1.8,0.1-3.6,0-5.4
	c-0.3-4.1,1.2-7.5,3.6-10.6c3.1-4,6.7-7.5,10.6-10.7c5.5-4.4,10.5-9.4,15.4-14.5c11.3-11.7,22.7-23.4,34.1-35
	C2257.1,123.8,2259.1,121.6,2262.6,119.4"/>
<path class="st0" d="M1345,372.9c0,81.1,0,162.2,0,243.2c0,8.8,1,8-8.2,8h-55.5c-1.2,0-2.4,0-3.6,0c-3.8-0.1-4-0.3-4.2-4.3
	c-0.2-3.4-0.2-6.8-0.2-10.2c-0.1-48.9-0.2-97.8-0.2-146.7c0.1-87.1,0.2-174.2,0.2-261.4c0-1,0.1-2,0-3c-0.6-5.4,1.6-9.3,5.6-13.1
	c18.4-17.7,36.5-35.8,54.7-53.7c2.9-2.8,5.8-5.6,8.7-8.4c0.5-0.5,1.2-1.3,2-0.7c0.4,0.3,0.6,1,0.6,1.5c0.1,2,0.1,4,0.1,6
	C1345,211.1,1345,292,1345,372.9"/>
<path class="st0" d="M1456.4,451.9v164.8c0,7.6,0.7,7.2-7.1,7.2h-56.2c-1.2,0-2.4,0.1-3.6,0c-3.1-0.1-3.3-0.4-3.4-3.6
	c0-1.4,0-2.8,0-4.2V288.3c0-1.8,0-3.6,0.1-5.4c0.1-1.4,0.9-2.2,2.3-2.2c1.2,0,2.4,0,3.6,0c19.5,0,39,0,58.6,0c6.1,0,6-0.4,5.9,5.9
	v165.4H1456.4z"/>
<path class="st0" d="M1456.7,166.4v36.8c0,1.2,0,2.4-0.1,3.6c-0.1,1.5-1,2.1-2.4,2.2c-0.8,0-1.6,0-2.4,0c-18.5,0-37,0-55.5,0
	c-2.8,0-5.6-0.3-8.4-0.6c-1.4-0.1-2.1-1-2.2-2.4c-0.1-2.2-0.2-4.4-0.2-6.6c0.1-3.6,1.2-6.6,3.8-9.2c4.5-4.6,8.8-9.4,13.3-14
	c16.2-16.5,32.5-32.9,48.7-49.3c1-1,2.1-1.9,3.2-2.7c0.6-0.5,1.8,0,1.8,0.7c0.1,1.6,0.1,3.2,0.1,4.8L1456.7,166.4L1456.7,166.4z"/>
<path class="st0" d="M2803.9,431.3c-0.1-1.3-0.1-2.6-0.4-3.9c-2.5-13.2-7.9-25.1-15.9-35.6c-11.4-14.9-26.7-24.8-46.7-30.4
	c-10.4-2.8-21.3-2.4-30.9-1.8c-11.5,0.7-22.5,4-33,9.6c-10.4,5.6-19.5,11.6-27.8,18.3c-1.7,1.3-3.3,2.9-4.9,4.4
	c-4.9,5.1-9.9,10.2-14.9,15.3c-10.9,11.4-21.8,22.7-32.7,34.1c-2.6,2.7-5.1,5.5-7.5,8.4l13.3,13.8c2.6,2.2,5.3,4.4,7.9,6.7
	c4.7,4.2,9.2,8.6,13.7,13c2.9,2.8,5.8,5.6,8.7,8.4c4.5,4.2,8.6,8.8,12.4,13.6l1.3,1.5c1.1,1,2.4,2.1,3.4,3
	c11.1,9.5,21.9,16.8,33.1,22.4c6.8,3.4,13.5,5.6,20.4,6.8c4.6,0.7,9.2,0.9,13.8,1l3.5,0.1c10.5,0.4,20.7-1.5,31.3-6
	c18.4-7.6,31.6-19,40.5-34.7c4.4-7.7,7.8-16,10.3-25.3c0.6-2.2,1-4.4,1.2-6.7l0.2-2.4c0.2-2.4,0.4-5.1,1-7.8v-11.3
	c-0.7-2.8-0.9-7-1.1-11.1L2803.9,431.3z"/>
<path class="st0" d="M2638.9,517.6l-3.6-4.3c-3.5-4.4-7.3-8.5-11.2-12.3c-3-2.8-5.9-5.6-8.9-8.5c-4.4-4.3-8.8-8.5-13.4-12.6
	c-6-5.4-12.1-10.5-18.5-15.8l-3.4-2.8c-2.5,2.2-4.7,4.4-7,6.7l-14.7,14.8c-3.4,3.9-6.8,8-10.3,11.8c-5,5.5-10.4,10.5-15.7,15.3
	l-3.8,3.5c-1.1,1-2.3,2.1-3.5,3.1c-10,10.4-18.4,21.8-24.9,34c-9,17.1-12.3,34.6-9.7,52c4.4,29.6,18.4,50.4,42.9,63.3
	c27.5,14.6,55.7,16.5,83.8,5.6c39-15.2,61.3-57.5,52-98.3c-3.8-16.3-11.2-31.6-22-45.4C2644.4,524.3,2641.6,521,2638.9,517.6"/>
<path class="st0" d="M2523.5,500.4c5.1-4.6,10.2-9.3,14.9-14.4c10.3-11.3,20.4-22.9,29.9-34.4c0.3-0.3,0.5-0.6,0.7-0.8l-4.3-4.5
	c-9.5-9.9-19-19.7-28.6-29.5c-4.4-4.5-9-8.8-13.6-13.1l-5.5-5.2c-4.6-4.3-9.3-8.8-14.3-12.5c-8.2-6.2-18.2-13.1-29.6-18.2
	c-9.7-4.3-18.6-6.6-27.4-7.2c-1.9-0.1-3.9-0.2-5.7-0.2c-11,0-21.7,1.9-31.8,5.8c-22.9,8.8-38.5,23.9-47.6,46.1
	c-6.1,15-8.6,30.3-7.6,46.7c1,14.8,4.6,27.7,11,39.3c7.2,13,16,22.7,26.7,29.5c13.8,8.8,28.9,13.4,45,13.6c7.4,0.1,14.6,0,21.3-1.5
	c14.8-3.2,29.1-9.9,43.9-20.4c6.8-4.8,13.2-10.7,18.7-15.8L2523.5,500.4z"/>
<path class="st0" d="M2572.7,432.1c2.1,2,4.4,3.8,6.6,5.6c6-5.4,11.5-10.4,16.8-15.5c6.3-6.1,12.5-12.3,18.7-18.6l3-3
	c6-6.1,12.1-12.2,18-18.5c9.8-10.3,18.1-21.8,24.7-34.2c9.9-18.7,12.6-37.5,8.4-57.6c-5.5-26.2-19.5-45-42.7-57.3
	c-25.1-13.4-51.8-15.4-79.7-6.2c-19.2,6.4-34.1,17.9-44.2,34.2c-8.1,13.3-12.5,29-13.1,46.7l0.1,2.8c0.1,2.1,0.1,4,0.3,6
	c0.3,3,0.8,6,1.4,9c2.3,11.5,6.9,22.6,13.9,33.9c9.8,15.6,21.2,29.6,34,41.6C2550.2,411.5,2561.4,421.9,2572.7,432.1"/>
</svg>
