<svg xmlns="http://www.w3.org/2000/svg" viewBox="0 0 64.91 47.82"><defs><style>.cls-1{fill:#057bfc;}</style></defs><g id="Capa_2" data-name="Capa 2"><g id="Capa_1-2" data-name="Capa 1"><path class="cls-1" d="M64.79,41.65l.09-28.88,0-6.37a6.25,6.25,0,0,0-.23-1.74h0A6.2,6.2,0,0,0,59.43.22a5.17,5.17,0,0,0-.68,0L6.33,0A6.16,6.16,0,0,0,.16,5.61a2.51,2.51,0,0,0,0,.55l0,7.43L0,41.42A6.18,6.18,0,0,0,5.48,47.6c.23,0,.45,0,.68,0l52.42.18A6.18,6.18,0,0,0,64.79,41.65ZM6.55,6.43l51.93.18V9.73L34.8,29.05l-.27.23-.24.24A1.51,1.51,0,0,1,33,30a1.36,1.36,0,0,1-.88-.42l-.32-.31L31.48,29,6.54,10.37ZM6.43,41.21l.08-22.84L27.64,34.12A7.94,7.94,0,0,0,38.87,34L58.45,18l-.09,23.35Z"/></g></g></svg>