<svg xmlns="http://www.w3.org/2000/svg" viewBox="0 0 83.93 73.21"><defs><style>.cls-1{fill:#057bfc;}</style></defs><g id="Capa_2" data-name="Capa 2"><g id="Capa_1-2" data-name="Capa 1"><polygon class="cls-1" points="83.93 25.89 83.93 43.46 64.5 46.06 64.5 25.89 83.93 25.89"/><polygon class="cls-1" points="9.5 25.89 9.5 53.43 0 54.7 0 25.89 9.5 25.89"/><polygon class="cls-1" points="38.18 53.63 38.18 73.21 0 73.21 0 58.74 38.18 53.63"/><polygon class="cls-1" points="83.93 47.5 83.93 73.21 42.18 73.21 42.18 53.09 83.93 47.5"/><path class="cls-1" d="M60.5,25.89V46.6l-47,6.29v-27h11C26.49,30.32,30,36,36.06,43l.12.13a4,4,0,0,0,2.67,1.27,4,4,0,0,0,2.67-1.27l.12-.13c6.06-7,9.57-12.69,11.59-17.12Z"/><path class="cls-1" d="M38.85,0A14.62,14.62,0,0,0,24.38,16.84a26.18,26.18,0,0,0,2.85,9.05A72.24,72.24,0,0,0,38,41.37s.53.54.9.54.9-.54.9-.54A72.36,72.36,0,0,0,50.48,25.89a26.18,26.18,0,0,0,2.85-9,15.93,15.93,0,0,0,.16-2.2A14.65,14.65,0,0,0,38.85,0Zm0,23.17a8.53,8.53,0,1,1,8.53-8.53A8.53,8.53,0,0,1,38.85,23.17Z"/></g></g></svg>