<svg xmlns="http://www.w3.org/2000/svg" viewBox="0 0 71.32 71.66"><defs><style>.cls-1{fill:#fff;fill-rule:evenodd;}</style></defs><g id="Capa_2" data-name="Capa 2"><g id="Capa_1-2" data-name="Capa 1"><path class="cls-1" d="M60.93,10.41A35.52,35.52,0,0,0,5,53.26L0,71.66l18.82-4.94a35.46,35.46,0,0,0,17,4.32h0A35.53,35.53,0,0,0,60.93,10.41ZM35.81,65.05h0a29.59,29.59,0,0,1-15-4.12l-1.07-.64L8.53,63.22l3-10.89-.7-1.11a29.51,29.51,0,1,1,25,13.83Z"/><path class="cls-1" d="M52,42.94c-.89-.44-5.25-2.59-6.07-2.88s-1.4-.45-2,.44S41.65,43.39,41.13,44s-1,.67-1.92.22a24.13,24.13,0,0,1-7.14-4.4,26.91,26.91,0,0,1-4.94-6.15c-.51-.89-.05-1.37.39-1.81s.89-1,1.34-1.55a6,6,0,0,0,.88-1.48,1.64,1.64,0,0,0-.07-1.56c-.22-.44-2-4.81-2.74-6.59s-1.45-1.49-2-1.52-1.11,0-1.7,0a3.24,3.24,0,0,0-2.37,1.11,10,10,0,0,0-3.11,7.4c0,4.37,3.18,8.59,3.63,9.18s6.25,9.55,15.15,13.4a52.61,52.61,0,0,0,5.06,1.87,12.22,12.22,0,0,0,5.59.35c1.71-.26,5.25-2.15,6-4.22A7.44,7.44,0,0,0,53.7,44C53.48,43.61,52.88,43.39,52,42.94Z"/></g></g></svg>